<svg width="46" height="46" viewBox="0 0 46 46" fill="none" xmlns="http://www.w3.org/2000/svg">
<circle cx="23" cy="23" r="23" fill="#232323"/>
<path d="M17.8936 28.4857L20.1941 30.7861M30.7962 25.9251C29.8195 26.8994 28.5953 27.5885 27.2557 27.9181C25.9161 28.2478 24.5119 28.2054 23.1947 27.7955L18.4837 32.4965C18.1436 32.8466 17.4735 33.0566 16.9934 32.9866L14.813 32.6865C14.0928 32.5865 13.4227 31.9064 13.3127 31.1862L13.0126 29.0058C12.9426 28.5257 13.1726 27.8555 13.5027 27.5155L18.2037 22.8145C17.4035 20.214 18.0236 17.2634 20.084 15.213C23.0346 12.2623 27.8256 12.2623 30.7862 15.213C33.7468 18.1636 33.7468 22.9745 30.7962 25.9251Z" stroke="#F3F4E8" stroke-miterlimit="10" stroke-linecap="round" stroke-linejoin="round"/>
<path d="M25.5062 21.9943C25.9041 21.9943 26.2857 21.8362 26.567 21.5548C26.8484 21.2735 27.0065 20.8919 27.0065 20.494C27.0065 20.0961 26.8484 19.7144 26.567 19.4331C26.2857 19.1517 25.9041 18.9937 25.5062 18.9937C25.1083 18.9937 24.7267 19.1517 24.4453 19.4331C24.1639 19.7144 24.0059 20.0961 24.0059 20.494C24.0059 20.8919 24.1639 21.2735 24.4453 21.5548C24.7267 21.8362 25.1083 21.9943 25.5062 21.9943Z" stroke="#F3F4E8" stroke-linecap="round" stroke-linejoin="round"/>
</svg>
